<svg width="274" height="28" viewBox="0 0 274 28" fill="none" xmlns="http://www.w3.org/2000/svg">
<path d="M18.4643 19.5317C17.9068 19.9432 17.2415 20.2654 16.4862 20.5338C15.731 20.8022 15.0476 20.9275 14.4183 20.9275C12.3863 20.9275 10.642 20.2296 9.22136 18.8517C7.80076 17.4559 7.09945 15.7559 7.09945 13.7517C7.09945 11.7296 7.80076 10.0296 9.22136 8.63378C10.642 7.2201 12.3863 6.52221 14.4183 6.52221C15.0476 6.52221 15.749 6.66536 16.5222 6.93378C17.2954 7.20221 17.9608 7.5601 18.5542 8.00747C19.0577 8.36536 19.6331 8.31168 19.9029 7.93589L22.6362 3.94537C22.87 3.60537 22.7621 3.06852 22.3305 2.76431C21.2695 1.99484 19.9928 1.36853 18.5002 0.885367C17.0077 0.384315 15.6411 0.133789 14.4183 0.133789C12.5121 0.133789 10.6959 0.491684 8.98759 1.20747C7.27927 1.90537 5.8227 2.87168 4.58192 4.08852C3.35912 5.28747 2.38808 6.73694 1.66878 8.41905C0.94949 10.1012 0.589844 11.8727 0.589844 13.7517C0.589844 15.6306 0.94949 17.4022 1.66878 19.0843C2.38808 20.7664 3.35912 22.2159 4.58192 23.4148C5.8227 24.6138 7.27927 25.5801 8.98759 26.2959C10.6959 26.9938 12.5121 27.3517 14.4183 27.3517C15.677 27.3517 17.0437 27.119 18.5182 26.6359C20.0108 26.1527 21.2336 25.5443 22.2046 24.8106C22.6542 24.5064 22.852 23.9696 22.6362 23.6296L19.9568 19.5854C19.6691 19.1738 19.0217 19.1559 18.4643 19.5317Z" fill="#414141"/>
<path d="M25.9989 25.8485C25.9989 26.439 26.3585 26.779 26.9519 26.779H44.215C44.8084 26.779 45.186 26.4211 45.186 25.8485V21.9832C45.186 21.2496 44.6825 20.7664 43.8733 20.7664H32.4545V16.3106H41.122C41.7694 16.3106 42.165 15.9527 42.165 15.3622V11.9622C42.165 11.3359 41.7694 10.978 41.122 10.978H32.4545V6.64747H43.8733C44.5027 6.64747 44.8264 6.32536 44.8264 5.69905V1.58326C44.8264 0.992736 44.4667 0.634841 43.8733 0.634841H26.9519C26.3585 0.634841 25.9989 0.992736 25.9989 1.58326V25.8485Z" fill="#414141"/>
<path d="M65.2543 12.9285C66.7469 11.9443 67.6819 10.1012 67.6819 8.18641C67.6819 5.80642 66.9087 3.94537 65.3802 2.62116C63.8517 1.29695 61.7118 0.634841 58.9425 0.634841H49.5018C49.0343 0.634841 48.8005 0.867473 48.8005 1.31484V26.099C48.8005 26.5464 49.0343 26.779 49.5018 26.779H59.6978C62.5929 26.779 64.8407 26.0811 66.4412 24.7032C68.0596 23.3254 68.8688 21.3927 68.8688 18.9054C68.8688 17.599 68.5451 16.4001 67.8977 15.3085C67.2504 14.2169 66.3692 13.4296 65.2543 12.9285ZM58.8706 6.45063C60.2912 6.45063 61.1723 7.29168 61.1723 8.65168C61.1723 10.0117 60.2912 10.8706 58.8706 10.8706H55.3281V6.45063H58.8706ZM55.3281 20.9632V15.7201H59.6079C61.2802 15.7201 62.3412 16.7043 62.3412 18.2969C62.3412 19.9254 61.2802 20.9632 59.6079 20.9632H55.3281Z" fill="#414141"/>
<path d="M72.1056 25.8485C72.1056 26.439 72.4652 26.779 73.0587 26.779H90.3217C90.9151 26.779 91.2927 26.4211 91.2927 25.8485V21.9832C91.2927 21.2496 90.7892 20.7664 89.98 20.7664H78.5612V16.3106H87.2287C87.8761 16.3106 88.2717 15.9527 88.2717 15.3622V11.9622C88.2717 11.3359 87.8761 10.978 87.2287 10.978H78.5612V6.64747H89.98C90.6094 6.64747 90.9331 6.32536 90.9331 5.69905V1.58326C90.9331 0.992736 90.5734 0.634841 89.98 0.634841H73.0587C72.4652 0.634841 72.1056 0.992736 72.1056 1.58326V25.8485Z" fill="#414141"/>
<path d="M100.5 0.634841H98.162H95.8423C95.2848 0.634841 94.9072 1.04642 94.9072 1.60116V25.8485C94.9072 26.439 95.2489 26.7969 95.8423 26.7969H100.446C101.075 26.7969 101.435 26.439 101.435 25.8485V18.7264H104.582C107.387 18.7264 109.653 17.9032 111.397 16.2748C113.141 14.6285 114.022 12.4454 114.022 9.72536C114.022 6.96957 113.141 4.76852 111.397 3.12221C109.653 1.458 107.387 0.634841 104.582 0.634841H100.5ZM101.435 12.839V6.52221H104.312C105.229 6.52221 106.002 6.82642 106.596 7.43484C107.207 8.02536 107.513 8.77694 107.513 9.68957C107.513 10.6022 107.207 11.3538 106.596 11.9443C106.002 12.5348 105.229 12.839 104.312 12.839H101.435Z" fill="#414141"/>
<path d="M133.767 0.634841H125.729C122.924 0.634841 120.64 1.458 118.896 3.12221C117.151 4.76852 116.288 6.96957 116.288 9.70747C116.288 12.9822 117.781 15.6843 120.352 17.2054L115.749 25.7054C115.461 26.2243 115.785 26.7969 116.36 26.7969H121.737C122.258 26.7969 122.492 26.618 122.834 25.9917L126.682 18.619H129.361V25.8485C129.361 26.439 129.721 26.7969 130.35 26.7969H134.954C135.547 26.7969 135.889 26.439 135.889 25.8485V1.58326C135.889 1.02853 135.511 0.634841 134.954 0.634841H133.767ZM125.999 13.018C125.082 13.018 124.308 12.6959 123.697 12.0517C123.103 11.3896 122.798 10.6022 122.798 9.67168C122.798 8.74115 123.103 7.98957 123.697 7.39905C124.29 6.80852 125.064 6.50431 125.999 6.50431H129.361V13.018H125.999Z" fill="#414141"/>
<path d="M157.27 0.634841C156.82 0.634841 156.587 0.867473 156.587 1.33274V10.3696H146.75V1.33274C146.75 0.867473 146.516 0.634841 146.067 0.634841H140.996C140.528 0.634841 140.295 0.867473 140.295 1.33274V26.099C140.295 26.5643 140.528 26.7969 140.996 26.7969H146.067C146.516 26.7969 146.75 26.5643 146.75 26.099V16.2569H156.587V26.099C156.587 26.5643 156.82 26.7969 157.27 26.7969H162.359C162.808 26.7969 163.042 26.5643 163.042 26.099V1.33274C163.042 0.867473 162.808 0.634841 162.359 0.634841H157.27Z" fill="#414141"/>
<path d="M166.243 13.7696C166.243 15.6306 166.603 17.4022 167.304 19.0843C168.023 20.7485 168.994 22.198 170.199 23.3969C171.422 24.5959 172.879 25.5622 174.569 26.278C176.259 26.9759 178.04 27.3338 179.928 27.3338C182.445 27.3338 184.747 26.7432 186.833 25.5443C188.937 24.3454 190.573 22.699 191.778 20.6232C192.983 18.5475 193.594 16.2569 193.594 13.7696C193.594 11.8906 193.235 10.119 192.515 8.43694C191.814 6.73694 190.843 5.28747 189.62 4.08852C188.415 2.88958 186.959 1.92326 185.268 1.22537C183.596 0.509578 181.816 0.151684 179.928 0.151684C178.04 0.151684 176.259 0.509578 174.569 1.22537C172.879 1.92326 171.422 2.88958 170.199 4.08852C168.994 5.28747 168.023 6.73694 167.304 8.43694C166.603 10.119 166.243 11.8906 166.243 13.7696ZM172.753 13.7696C172.753 11.7654 173.454 10.0833 174.839 8.70536C176.223 7.32747 177.932 6.62957 179.928 6.62957C181.924 6.62957 183.614 7.32747 184.999 8.70536C186.383 10.0833 187.085 11.7654 187.085 13.7696C187.085 15.7559 186.383 17.4201 184.999 18.798C183.614 20.1759 181.924 20.8559 179.928 20.8559C177.914 20.8559 176.205 20.1759 174.821 18.798C173.436 17.4201 172.753 15.7559 172.753 13.7696Z" fill="#414141"/>
<path d="M212.332 0.616947C211.828 0.616947 211.415 1.06431 211.415 1.58326V8.95589C211.415 10.298 210.983 11.3717 210.138 12.1769C209.293 12.9822 208.178 13.3938 206.757 13.3938C203.934 13.3938 202.262 11.7296 202.262 8.9201V1.58326C202.262 1.02853 201.83 0.616947 201.255 0.616947H196.633C196.148 0.616947 195.752 1.06431 195.752 1.58326V8.93799C195.752 12.1948 196.723 14.8075 198.665 16.7759C200.607 18.7264 203.125 19.7106 206.218 19.7106C208.232 19.7106 210.12 18.9054 211.415 17.6706V25.8485C211.415 26.3675 211.81 26.779 212.332 26.779H216.989C217.511 26.779 217.924 26.3496 217.924 25.8306V1.58326C217.924 1.02853 217.547 0.616947 217.043 0.616947H212.332Z" fill="#414141"/>
<path d="M237.903 12.9643L246.265 1.86958C246.696 1.29695 246.516 0.688525 245.851 0.688525H239.935C239.305 0.688525 238.964 0.760104 238.55 1.31484L231.735 10.4233H228.84V1.33274C228.84 0.885367 228.606 0.652736 228.156 0.652736H223.031C222.564 0.652736 222.33 0.885367 222.33 1.33274V26.0811C222.33 26.5464 222.564 26.779 223.031 26.779H228.156C228.606 26.779 228.84 26.5464 228.84 26.0811V16.5433H232.544L239.161 26.4211C239.395 26.6896 239.719 26.8327 240.097 26.8327H246.067C246.696 26.8327 246.858 26.2064 246.498 25.6875L237.903 12.9643Z" fill="#414141"/>
<path d="M263.653 1.49379C263.456 0.974841 262.97 0.616947 262.467 0.616947H258.672C258.169 0.616947 257.683 0.939052 257.45 1.49379L247.847 25.7411C247.613 26.3675 247.883 26.7969 248.548 26.7969H253.637C254.195 26.7969 254.662 26.439 254.806 25.938L255.975 22.5201H265.092L266.279 25.9559C266.477 26.4569 266.926 26.8148 267.43 26.8148H272.537C273.238 26.8148 273.472 26.3496 273.238 25.759L263.653 1.49379ZM260.525 9.18852L263.24 17.1159H257.809L260.525 9.18852Z" fill="#414141"/>
</svg>
