<svg width="127" height="102" viewBox="0 0 127 102" fill="none" xmlns="http://www.w3.org/2000/svg">
<path d="M113.09 53.4805H13.7718C11.689 53.4805 9.996 55.2457 10.1774 57.3197C12.3542 82.013 35.3648 101.444 63.4277 101.444C91.4906 101.444 114.501 82.013 116.678 57.3197C116.866 55.2457 115.173 53.4805 113.09 53.4805Z" fill="#FF6633"/>
<path d="M45.5036 16.5315C44.3951 16.5315 43.2933 16.0349 42.5744 15.0818C38.9464 10.3163 32.0533 7.34959 24.5892 7.34959C17.125 7.34959 10.2319 10.3096 6.6039 15.0818C5.37442 16.6993 3.06328 17.0081 1.45086 15.7798C-0.168285 14.5515 -0.477334 12.2426 0.75214 10.6317C5.81784 3.97348 14.7265 0 24.5892 0C34.4518 0 43.3605 3.97348 48.4329 10.6317C49.6624 12.2493 49.3466 14.5515 47.7342 15.7798C47.0623 16.2899 46.283 16.5315 45.5036 16.5315Z" fill="#414141"/>
<path d="M123.183 16.5315C122.075 16.5315 120.973 16.0349 120.254 15.0818C116.626 10.3163 109.733 7.34959 102.269 7.34959C94.8047 7.34959 87.9115 10.3096 84.2836 15.0818C83.0541 16.6993 80.743 17.0081 79.1305 15.7798C77.5114 14.5515 77.2024 12.2426 78.4318 10.6317C83.4975 3.97348 92.4062 0 102.269 0C112.132 0 121.04 3.97348 126.113 10.6317C127.342 12.2493 127.026 14.5515 125.414 15.7798C124.742 16.2899 123.963 16.5315 123.183 16.5315Z" fill="#414141"/>
</svg>
