<svg width="40" height="40" viewBox="0 0 40 40" fill="none" xmlns="http://www.w3.org/2000/svg">
<circle cx="20" cy="20" r="20" fill="white"/>
<circle cx="20" cy="20" r="20" fill="white"/>
<path d="M29.7952 22.7593H10.1127C9.70027 22.7593 9.36352 23.1155 9.40134 23.5359C9.83353 28.53 14.3931 32.4609 19.9539 32.4609C25.5148 32.4609 30.0743 28.5318 30.5065 23.5359C30.5425 23.1155 30.2076 22.7593 29.7952 22.7593Z" fill="#FF6633"/>
<path d="M16.4621 15.5388C16.2434 15.5388 16.026 15.4404 15.8842 15.2517C15.1684 14.3082 13.8084 13.7208 12.3357 13.7208C10.8631 13.7208 9.50309 14.3068 8.7873 15.2517C8.54473 15.572 8.08875 15.6331 7.77062 15.3899C7.45117 15.1467 7.3902 14.6896 7.63277 14.3706C8.63222 13.0523 10.3899 12.2656 12.3357 12.2656C14.2816 12.2656 16.0392 13.0523 17.04 14.3706C17.2826 14.6909 17.2203 15.1467 16.9022 15.3899C16.7696 15.4909 16.6159 15.5388 16.4621 15.5388Z" fill="#414141"/>
<path d="M31.7863 15.5388C31.5676 15.5388 31.3502 15.4404 31.2084 15.2517C30.4926 14.3082 29.1326 13.7208 27.66 13.7208C26.1873 13.7208 24.8273 14.3068 24.1115 15.2517C23.869 15.572 23.413 15.6331 23.0948 15.3899C22.7754 15.1467 22.7144 14.6896 22.957 14.3706C23.9564 13.0523 25.7141 12.2656 27.66 12.2656C29.6058 12.2656 31.3635 13.0523 32.3642 14.3706C32.6068 14.6909 32.5445 15.1467 32.2264 15.3899C32.0938 15.4909 31.9401 15.5388 31.7863 15.5388Z" fill="#414141"/>
</svg>
